<svg width="253" height="192" viewBox="0 0 253 192" fill="none" xmlns="http://www.w3.org/2000/svg">
<g clip-path="url(#clip0)">
<path opacity="0.5" d="M156.367 4.00905C122.768 9.88719 90.7784 22.3262 58.0565 32.0633C36.4047 38.5026 3.86299 40.4582 0.312463 68.7033C-0.745142 77.1618 1.02722 85.7013 3.21797 93.9342C15.8279 140.722 45.2084 178.155 94.8228 187.192C123.878 192.474 154.56 195.87 182.465 183.784C213.96 170.148 236.571 141.549 246.572 109.26C255.869 79.2678 258.397 31.6352 231.033 9.69627C215.489 -2.77164 196.254 -0.202843 177.734 1.26091C170.529 1.83368 163.41 2.77673 156.367 4.00905Z" fill="#EDEDED"/>
<path d="M164.52 149.002H100.779V175.777H164.52V149.002Z" fill="#9E9E9E"/>
<path d="M232.579 30.999H32.7208C32.0789 30.999 31.5586 31.5171 31.5586 32.1561V155.776C31.5586 156.415 32.0789 156.934 32.7208 156.934H232.579C233.221 156.934 233.741 156.415 233.741 155.776V32.1561C233.741 31.5171 233.221 30.999 232.579 30.999Z" fill="#E0E0E0"/>
<path d="M180.454 175.771H84.8398V180.73H180.454V175.771Z" fill="#E0E0E0"/>
<path d="M224.276 39.9205H41.0195V148.996H224.276V39.9205Z" fill="black"/>
<path d="M224.276 52.2784H41.0195V149.002H224.276V52.2784Z" fill="white"/>
<path d="M97.4199 103.521H100.447V108.809H97.4199V115.092H90.5513V108.815H79.0513L78.6445 104.626L90.5513 85.5339V85.4761H97.4199V103.521ZM85.2168 103.521H90.5687V94.4206L90.1387 95.1091L85.2168 103.521Z" fill="#E6B946"/>
<path d="M124.152 103.001C124.152 106.996 123.251 110.082 121.45 112.257C119.648 114.433 117.105 115.519 113.82 115.515C110.507 115.515 107.947 114.423 106.138 112.24C104.328 110.057 103.424 106.971 103.424 102.983V97.5737C103.424 93.574 104.325 90.4883 106.126 88.3168C107.927 86.1453 110.478 85.0615 113.779 85.0653C117.072 85.0653 119.625 86.1549 121.438 88.3342C123.251 90.5134 124.156 93.599 124.152 97.5911V103.001ZM117.271 96.7175C117.271 94.5884 116.993 92.9993 116.435 91.9501C116.197 91.4563 115.818 91.0432 115.346 90.7623C114.873 90.4814 114.329 90.3452 113.779 90.3707C113.252 90.3412 112.728 90.4636 112.269 90.7232C111.811 90.9828 111.437 91.3687 111.193 91.8344C110.653 92.8122 110.368 94.2933 110.327 96.272V103.834C110.327 106.044 110.606 107.662 111.164 108.688C111.41 109.172 111.792 109.575 112.263 109.847C112.735 110.119 113.275 110.249 113.82 110.221C114.35 110.245 114.876 110.118 115.335 109.853C115.795 109.588 116.168 109.198 116.411 108.728C116.969 107.725 117.256 106.161 117.271 104.036V96.7175Z" fill="#E6B946"/>
<path d="M145.885 103.521H148.906V108.809H145.885V115.092H138.999V108.815H127.499L127.092 104.626L138.999 85.5339V85.4761H145.885V103.521ZM133.647 103.521H138.999V94.4206L138.569 95.1091L133.647 103.521Z" fill="#E6B946"/>
<path d="M166.734 92.2221C167.731 92.1887 168.703 92.5341 169.454 93.1882C169.795 93.5039 170.067 93.8862 170.253 94.3113C170.439 94.7364 170.535 95.195 170.535 95.6587C170.535 96.1223 170.439 96.581 170.253 97.0061C170.067 97.4311 169.795 97.8134 169.454 98.1291C168.686 98.7557 167.724 99.0981 166.731 99.0981C165.738 99.0981 164.776 98.7557 164.009 98.1291C163.671 97.8132 163.402 97.4318 163.218 97.0084C163.034 96.585 162.939 96.1286 162.939 95.6674C162.939 95.2061 163.034 94.7497 163.218 94.3263C163.402 93.903 163.671 93.5215 164.009 93.2056C164.757 92.5417 165.732 92.1896 166.734 92.2221ZM166.734 108.422C167.731 108.388 168.703 108.734 169.454 109.388C169.795 109.704 170.067 110.086 170.253 110.511C170.439 110.936 170.535 111.395 170.535 111.858C170.535 112.322 170.439 112.781 170.253 113.206C170.067 113.631 169.795 114.013 169.454 114.329C168.703 114.983 167.731 115.328 166.734 115.295C165.733 115.332 164.756 114.982 164.009 114.317C163.671 114.002 163.402 113.621 163.219 113.198C163.035 112.775 162.94 112.319 162.94 111.858C162.94 111.397 163.035 110.942 163.219 110.519C163.402 110.096 163.671 109.715 164.009 109.399C164.76 108.746 165.737 108.406 166.734 108.451V108.422Z" fill="#E6B946"/>
<path d="M175.539 103.064C175.509 99.9293 175.957 96.808 176.869 93.8073C177.631 91.2001 178.868 88.7546 180.519 86.5927C181.859 84.7847 183.65 83.3551 185.714 82.4445L187.021 85.8174C185.115 87.2098 183.641 89.3891 182.599 92.3551C181.496 95.7153 180.962 99.2346 181.018 102.769V103.66C180.943 107.261 181.471 110.849 182.581 114.277C183.624 117.274 185.103 119.47 187.021 120.866L185.748 124.251C183.68 123.342 181.889 121.907 180.553 120.091C178.892 117.936 177.648 115.491 176.887 112.882C176.013 109.994 175.565 106.995 175.556 103.978L175.539 103.064Z" fill="#E6B946"/>
<path d="M213.246 140.803V142.25H211.793" stroke="#E6B946" stroke-miterlimit="10"/>
<path d="M208.91 142.25H54.9414" stroke="#E6B946" stroke-miterlimit="10" stroke-dasharray="4.95 4.95"/>
<path d="M53.5074 142.25H52.0547V140.803" stroke="#E6B946" stroke-miterlimit="10"/>
<path d="M52.0547 137.807V61.4659" stroke="#E6B946" stroke-miterlimit="10" stroke-dasharray="5.17 5.17"/>
<path d="M52.0547 59.9675V58.5211H53.5074" stroke="#E6B946" stroke-miterlimit="10"/>
<path d="M56.3828 58.5211H210.351" stroke="#E6B946" stroke-miterlimit="10" stroke-dasharray="4.95 4.95"/>
<path d="M211.793 58.5211H213.246V59.9675" stroke="#E6B946" stroke-miterlimit="10"/>
<path d="M213.246 62.9586V139.305" stroke="#E6B946" stroke-miterlimit="10" stroke-dasharray="5.17 5.17"/>
<path d="M224.276 39.9205H41.0195V46.2557H224.276V39.9205Z" fill="#E6B946"/>
</g>
<defs>
<clipPath id="clip0">
<rect width="253" height="192" fill="white"/>
</clipPath>
</defs>
</svg>
